<?xml version="1.0"?>
<svg width="119.4" height="122.88" xmlns="http://www.w3.org/2000/svg" xmlns:svg="http://www.w3.org/2000/svg" enable-background="new 0 0 119.4 122.88" version="1.1" xml:space="preserve">

 <g class="layer">
  <title>Layer 1</title>
  <g id="svg_1">
   <path d="m78.62,17.22l36.71,-16.95c1.45,-0.66 3.14,-0.03 3.8,1.42c0.17,0.38 0.28,0.79 0.28,1.21l0,94.23c0,1.11 -0.62,2.04 -1.52,2.52l-37.74,22.79c-0.07,0.03 -0.14,0.1 -0.24,0.14l-0.03,0.03l-0.1,0c-0.35,0.17 -0.73,0.24 -1.1,0.24s-0.76,-0.07 -1.11,-0.24l-0.1,0l-0.03,-0.03c-0.07,-0.03 -0.17,-0.07 -0.24,-0.14l-36.39,-21.96l-36.43,22c-1.35,0.83 -3.14,0.38 -3.94,-0.97c-0.3,-0.46 -0.44,-0.98 -0.44,-1.5l0,-99.62c0,-1.24 0.76,-2.28 1.86,-2.69l37.75,-17.4l0.07,0l0.07,-0.03l0.03,0c0.28,-0.1 0.55,-0.17 0.86,-0.17l0.35,0c0.28,0.03 0.59,0.07 0.86,0.17l0.03,0l0.07,0.03l0.07,0l36.71,16.95l-0.11,-0.03l0,0zm-40.78,78.27l0,-88.12l-32.14,14.85l0,92.68l32.14,-19.41l0,0l0,0zm37.92,19.41l0,-92.68l-32.15,-14.85l0,88.12l32.15,19.41l0,0zm37.91,-107.53l-32.14,14.85l0,92.68l32.15,-19.41l0,-88.12l-0.01,0z" fill="#ffffff" id="svg_2"/>
  </g>
 </g>
</svg>