<?xml version="1.0"?>
<svg width="119.828" height="122.88" xmlns="http://www.w3.org/2000/svg" xmlns:svg="http://www.w3.org/2000/svg" enable-background="new 0 0 119.828 122.88" version="1.1" xml:space="preserve">

 <g class="layer">
  <title>Layer 1</title>
  <g id="svg_1">
   <path d="m48.32,0c13.34,0 25.42,5.41 34.16,14.15c8.75,8.75 14.16,20.83 14.16,34.17c0,12.81 -4.99,24.45 -13.12,33.1c0.15,0.1 0.29,0.23 0.42,0.36l34.79,34.74c1.46,1.45 1.46,3.8 0.01,5.26c-1.45,1.46 -3.8,1.47 -5.26,0.02l-34.79,-34.74c-0.22,-0.22 -0.4,-0.46 -0.56,-0.72c-8.21,6.45 -18.56,10.3 -29.81,10.3c-13.35,0 -25.43,-5.41 -34.17,-14.16c-8.74,-8.74 -14.15,-20.82 -14.15,-34.16s5.41,-25.42 14.15,-34.17c8.75,-8.74 20.83,-14.15 34.17,-14.15l0,0zm28.76,19.55c-7.36,-7.36 -17.53,-11.91 -28.76,-11.91c-11.23,0 -21.4,4.55 -28.77,11.91c-7.36,7.37 -11.91,17.54 -11.91,28.77c0,11.23 4.55,21.4 11.91,28.76c7.36,7.36 17.54,11.92 28.77,11.92c11.23,0 21.4,-4.56 28.76,-11.92c7.36,-7.36 11.92,-17.53 11.92,-28.76c0,-11.23 -4.56,-21.4 -11.92,-28.77l0,0z" fill="#0354a5" id="svg_2"/>
  </g>
 </g>
</svg>