<?xml version="1.0"?>
<svg width="122.88" height="107.54" xmlns="http://www.w3.org/2000/svg" xmlns:svg="http://www.w3.org/2000/svg" data-name="Layer 1">
 <title>travel</title>

 <g class="layer">
  <title>Layer 1</title>
  <path d="m88.42,68.75a48.8,48.8 0 0 1 -4.74,11.1l9.89,0a7.67,7.67 0 0 0 1.35,0.65l0,0a7,7 0 0 0 6.68,-1l2.72,-1.85a53.3,53.3 0 0 1 -4.25,7.66a50.16,50.16 0 0 1 -13.6,13.59a52,52 0 0 1 -8.6,4.67a49.29,49.29 0 0 1 -9.57,3a52.37,52.37 0 0 1 -20.27,0a49,49 0 0 1 -9.41,-2.91l-0.16,-0.06a52.41,52.41 0 0 1 -8.6,-4.67a49.81,49.81 0 0 1 -7.46,-6.14c-1,-1 -1.94,-2 -2.85,-3.1a48.57,48.57 0 0 1 4.54,-3.46q1.13,1.31 2.34,2.52l0,0a43.34,43.34 0 0 0 6.59,5.43a47.51,47.51 0 0 0 7.69,4.16l0.13,0.06a42.89,42.89 0 0 0 8.3,2.55c0.71,0.14 1.44,0.27 2.17,0.37a90.25,90.25 0 0 1 -16,-17.24l-8,0c3,-1.9 6.34,-3.75 9.65,-5.49c0.25,0.43 0.51,0.85 0.78,1.27l18.26,0l0,-10.24l1.4,-0.59a6.73,6.73 0 0 0 3,2.93l0,7.89l18.17,0c4.34,-6.81 6.68,-13.67 7,-20.57l2.88,9.47l-0.03,0zm-37.07,-16.3c0.68,-2.17 2.57,-3.91 5.31,-5.67l-9.36,-10.94c-0.63,-0.55 -0.47,-1 0.12,-1.39l3.11,-1.33a1.82,1.82 0 0 1 1.51,0.19l13.59,6.85l16,-9.25l-22.12,-27.5c-0.57,-0.63 -0.49,-1.12 0.4,-1.44l5,-2l33.24,21.49l12,-5.83c4.57,-2 8.51,-2.32 11,-0.83a2.9,2.9 0 0 1 1.78,3c0.05,3 -2.46,6.24 -6.89,9l-12.47,4.86l-1,39.53l-4.46,3c-0.77,0.55 -1.22,0.35 -1.42,-0.48l-10.32,-33.71l-16.64,8l-2,15a1.85,1.85 0 0 1 -0.73,1.38l-2.83,1.82c-0.65,0.26 -1.11,0.14 -1.2,-0.69l-3.76,-13.9c-3,1.28 -5.52,1.86 -7.7,1.18c-0.2,-0.06 -0.22,-0.15 -0.16,-0.34zm-4.2,-6.93c-13.22,7 -30.9,18.37 -37.4,25c-21.26,21.89 -4.67,38.95 20.17,31.48c-7.78,-1.15 -13.87,-2.72 -17.25,-4.94c-14.43,-9.48 32,-29.94 42.86,-34.42l-0.85,-3.15a13.18,13.18 0 0 1 -5.07,-0.53l-0.61,-0.27a6.05,6.05 0 0 1 -3.55,-3.51l-0.13,-0.35a6.08,6.08 0 0 1 -0.07,-4.26a13.1,13.1 0 0 1 2.41,-4.47l-0.49,-0.58l-0.02,0zm-39.15,17.59a53.31,53.31 0 0 1 -0.34,-6.11a51.43,51.43 0 0 1 1,-10.14a48.27,48.27 0 0 1 2.9,-9.41l0.06,-0.15a53.32,53.32 0 0 1 4.68,-8.61a49.17,49.17 0 0 1 6.13,-7.45a49.81,49.81 0 0 1 7.46,-6.14a52.41,52.41 0 0 1 8.6,-4.67a49.51,49.51 0 0 1 9.57,-3a51.5,51.5 0 0 1 5.87,-0.82a9.24,9.24 0 0 0 0.74,1l5.72,7.13l0,15.12l10.22,0l-5.19,3l-9.42,-4.74l0,-13.41a104.13,104.13 0 0 0 -14.44,15.15l1.33,0a6.85,6.85 0 0 0 -2.17,3.5a5.42,5.42 0 0 0 -0.17,0.8l0,0.09l-2.07,0a51.72,51.72 0 0 0 -5.74,11.75c-1.81,1.09 -3.63,2.2 -5.43,3.34a50.67,50.67 0 0 1 6,-15.13l-13.77,0a48.92,48.92 0 0 0 -2.67,5.32l-0.06,0.13a42.11,42.11 0 0 0 -2.55,8.34a44.76,44.76 0 0 0 -0.82,6.82l5.56,0a130.39,130.39 0 0 0 -11,8.3l0,-0.01zm77.51,-3.9l-10.81,0l0.59,-4.4l8.9,0l1.33,4.4l-0.01,0zm-4.51,24.86a90.83,90.83 0 0 1 -16,17.25c0.73,-0.11 1.45,-0.24 2.17,-0.38a43.49,43.49 0 0 0 8.42,-2.61a47.09,47.09 0 0 0 7.69,-4.16a43.34,43.34 0 0 0 6.59,-5.43l0,0a42.75,42.75 0 0 0 4.13,-4.67l-13,0zm-20.62,15.43a93.83,93.83 0 0 0 15.24,-15.43l-15.24,0l0,15.43zm-4.38,-15.43l-15.25,0a94.23,94.23 0 0 0 15.25,15.43l0,-15.43zm-19.84,-54.21a100.58,100.58 0 0 1 15.56,-17.21c-0.86,0.12 -1.71,0.26 -2.55,0.43a42,42 0 0 0 -8.43,2.61a47.51,47.51 0 0 0 -7.69,4.16a43.34,43.34 0 0 0 -6.59,5.43l0,0a43.24,43.24 0 0 0 -4,4.57l13.7,0.01z" fill="#ffffff" id="svg_1"/>
 </g>
</svg>